<svg width="40" height="40" viewBox="0 0 40 40" fill="none" xmlns="http://www.w3.org/2000/svg">
<path fill-rule="evenodd" clip-rule="evenodd" d="M20 5C15.926 5 15.416 5.017 13.816 5.09C12.219 5.163 11.128 5.417 10.174 5.788C9.174 6.164 8.267 6.754 7.517 7.518C6.75422 8.26713 6.16386 9.17349 5.787 10.174C5.418 11.128 5.163 12.22 5.09 13.817C5.018 15.416 5 15.925 5 20C5 24.075 5.017 24.584 5.09 26.184C5.163 27.781 5.417 28.872 5.788 29.826C6.164 30.826 6.754 31.733 7.518 32.483C8.26715 33.2458 9.17351 33.8361 10.174 34.213C11.128 34.583 12.219 34.837 13.816 34.91C15.416 34.983 15.926 35 20 35C24.074 35 24.584 34.983 26.184 34.91C27.781 34.837 28.872 34.583 29.826 34.212C30.826 33.836 31.733 33.246 32.483 32.482C33.2458 31.7329 33.8361 30.8265 34.213 29.826C34.583 28.872 34.837 27.781 34.91 26.184C34.983 24.584 35 24.074 35 20C35 15.926 34.983 15.416 34.91 13.816C34.837 12.219 34.583 11.128 34.212 10.174C33.8354 9.17306 33.245 8.26632 32.482 7.517C31.7329 6.75422 30.8265 6.16386 29.826 5.787C28.872 5.418 27.78 5.163 26.183 5.09C24.584 5.018 24.075 5 20 5ZM20 7.703C24.005 7.703 24.48 7.718 26.062 7.79C27.524 7.857 28.318 8.1 28.847 8.307C29.547 8.578 30.047 8.904 30.572 9.428C31.097 9.953 31.422 10.453 31.693 11.153C31.899 11.682 32.143 12.476 32.21 13.938C32.282 15.52 32.297 15.995 32.297 20C32.297 24.005 32.282 24.48 32.21 26.062C32.143 27.524 31.9 28.318 31.693 28.847C31.4529 29.4985 31.0699 30.088 30.572 30.572C30.0881 31.07 29.4986 31.4531 28.847 31.693C28.318 31.899 27.524 32.143 26.062 32.21C24.48 32.282 24.006 32.297 20 32.297C15.994 32.297 15.52 32.282 13.938 32.21C12.476 32.143 11.682 31.9 11.153 31.693C10.5015 31.4529 9.91201 31.0699 9.428 30.572C8.93018 30.088 8.54713 29.4985 8.307 28.847C8.101 28.318 7.857 27.524 7.79 26.062C7.718 24.48 7.703 24.005 7.703 20C7.703 15.995 7.718 15.52 7.79 13.938C7.857 12.476 8.1 11.682 8.307 11.153C8.578 10.453 8.904 9.953 9.428 9.428C9.91194 8.93004 10.5014 8.54698 11.153 8.307C11.682 8.101 12.476 7.857 13.938 7.79C15.52 7.718 15.995 7.703 20 7.703V7.703Z" fill="white"/>
<path fill-rule="evenodd" clip-rule="evenodd" d="M19.9991 25.0051C19.3418 25.0051 18.691 24.8757 18.0837 24.6242C17.4765 24.3726 16.9247 24.004 16.46 23.5392C15.9952 23.0745 15.6266 22.5227 15.375 21.9155C15.1235 21.3082 14.9941 20.6574 14.9941 20.0001C14.9941 19.3429 15.1235 18.692 15.375 18.0848C15.6266 17.4776 15.9952 16.9258 16.46 16.4611C16.9247 15.9963 17.4765 15.6276 18.0837 15.3761C18.691 15.1246 19.3418 14.9951 19.9991 14.9951C21.3265 14.9951 22.5995 15.5224 23.5381 16.4611C24.4767 17.3997 25.0041 18.6727 25.0041 20.0001C25.0041 21.3275 24.4767 22.6006 23.5381 23.5392C22.5995 24.4778 21.3265 25.0051 19.9991 25.0051V25.0051ZM19.9991 12.2901C17.9542 12.2901 15.9932 13.1024 14.5473 14.5483C13.1014 15.9942 12.2891 17.9553 12.2891 20.0001C12.2891 22.045 13.1014 24.006 14.5473 25.4519C15.9932 26.8978 17.9542 27.7101 19.9991 27.7101C22.0439 27.7101 24.0049 26.8978 25.4509 25.4519C26.8968 24.006 27.7091 22.045 27.7091 20.0001C27.7091 17.9553 26.8968 15.9942 25.4509 14.5483C24.0049 13.1024 22.0439 12.2901 19.9991 12.2901V12.2901ZM29.9521 12.1501C29.9521 12.6335 29.76 13.0971 29.4183 13.4388C29.0765 13.7806 28.6129 13.9726 28.1296 13.9726C27.6462 13.9726 27.1826 13.7806 26.8409 13.4388C26.4991 13.0971 26.3071 12.6335 26.3071 12.1501C26.3071 11.6668 26.4991 11.2032 26.8409 10.8614C27.1826 10.5196 27.6462 10.3276 28.1296 10.3276C28.6129 10.3276 29.0765 10.5196 29.4183 10.8614C29.76 11.2032 29.9521 11.6668 29.9521 12.1501" fill="white"/>
</svg>
