<svg width="169" height="47" viewBox="0 0 169 47" fill="none" xmlns="http://www.w3.org/2000/svg">
<rect width="169" height="47" fill="#0023A3"/>
<path d="M36.34 31L32.9 25.4C34.42 24.7 35.36 23.34 35.36 21.58C35.36 18.92 33.28 17 30.14 17H25.3V31H28V25.96H30.14C30.22 25.96 30.3 25.96 30.36 25.96L33.24 31H36.34ZM28 19.52H30.14C31.66 19.52 32.58 20.32 32.58 21.58C32.58 22.98 31.54 23.62 30.14 23.62H28V19.52ZM41.6367 28.48V25.2H46.5567V22.68H41.6367V19.52H47.0167V17H38.9367V31H47.1967V28.48H41.6367ZM59.9255 31H62.8055L57.7655 17H54.4455L49.4055 31H52.2855L53.2255 28.22H58.9855L59.9255 31ZM54.0455 25.8L56.1055 19.74L58.1655 25.8H54.0455ZM69.7694 17H65.4094V31H69.7694C74.4294 31 77.2094 28.12 77.2094 24C77.2094 19.88 74.4294 17 69.7694 17ZM69.7694 28.48H68.1294V19.52H69.7694C72.3094 19.52 74.4894 20.88 74.4894 24C74.4894 27.12 72.3094 28.48 69.7694 28.48ZM98.3109 17L93.8509 24.2L89.3909 17H86.5109V31H89.2109V21.72L93.4109 28.5H94.3109L98.4909 21.72V31H101.211V17H98.3109ZM111.436 16.76C107.296 16.76 104.316 19.9 104.316 24C104.316 28.1 107.296 31.26 111.436 31.26C115.576 31.26 118.556 28.1 118.556 24C118.556 19.9 115.576 16.76 111.436 16.76ZM111.436 28.68C108.536 28.68 107.036 26.34 107.036 24C107.036 21.68 108.536 19.34 111.436 19.34C114.336 19.34 115.836 21.68 115.836 24C115.836 26.34 114.336 28.68 111.436 28.68ZM132.695 31L129.255 25.4C130.775 24.7 131.715 23.34 131.715 21.58C131.715 18.92 129.635 17 126.495 17H121.655V31H124.355V25.96H126.495C126.575 25.96 126.655 25.96 126.715 25.96L129.595 31H132.695ZM124.355 19.52H126.495C128.015 19.52 128.935 20.32 128.935 21.58C128.935 22.98 127.895 23.62 126.495 23.62H124.355V19.52ZM137.992 28.48V25.2H142.912V22.68H137.992V19.52H143.372V17H135.292V31H143.552V28.48H137.992Z" fill="white"/>
</svg>
