<svg width="170" height="47" viewBox="0 0 170 47" fill="none" xmlns="http://www.w3.org/2000/svg">
<rect width="170" height="47" fill="#FDCB0B"/>
<path d="M38.84 22.96C37.54 22.66 35.76 22.44 35.76 20.86C35.76 19.74 36.72 19.14 37.88 19.14C39.28 19.14 40 19.96 40.16 20.7L42.8 20.06C42.2 17.92 40.36 16.76 38.02 16.76C35.1 16.76 33.08 18.4 33.08 21.04C33.08 22.98 34.02 24.4 36.84 25.1C39.06 25.64 40.64 25.74 40.64 27.14C40.64 28.34 39.52 28.88 38.12 28.88C36.16 28.88 35.32 27.84 35.12 27.04L32.5 27.86C33.18 30.18 35.52 31.26 38.14 31.26C41.8 31.26 43.36 29.12 43.36 26.94C43.36 24.68 42.16 23.72 38.84 22.96ZM52.7755 28.68C49.8755 28.68 48.3755 26.34 48.3755 24C48.3755 21.68 49.8755 19.34 52.7755 19.34C54.2355 19.34 55.3555 19.94 56.0955 20.84L58.3355 19.36C57.0755 17.74 55.1155 16.76 52.7755 16.76C48.6355 16.76 45.6555 19.9 45.6555 24C45.6555 28.1 48.6355 31.26 52.7755 31.26C55.1155 31.26 57.0755 30.26 58.3355 28.66L56.0955 27.18C55.3555 28.08 54.2355 28.68 52.7755 28.68ZM69.5622 17V22.68H63.7622V17H61.0422V31H63.7622V25.2H69.5622V31H72.2822V17H69.5622ZM78.5898 28.48V25.2H83.5098V22.68H78.5898V19.52H83.9698V17H75.8898V31H84.1498V28.48H78.5898ZM91.7186 17H87.3586V31H91.7186C96.3786 31 99.1586 28.12 99.1586 24C99.1586 19.88 96.3786 17 91.7186 17ZM91.7186 28.48H90.0786V19.52H91.7186C94.2586 19.52 96.4386 20.88 96.4386 24C96.4386 27.12 94.2586 28.48 91.7186 28.48ZM110.885 17V25.48C110.885 27.82 109.465 28.68 107.945 28.68C106.405 28.68 104.985 27.82 104.985 25.48V17H102.265V25.84C102.265 29.14 104.285 31.26 107.945 31.26C111.605 31.26 113.605 29.14 113.605 25.84V17H110.885ZM119.91 28.48V17H117.21V31H125.31V28.48H119.91ZM131.008 28.48V25.2H135.928V22.68H131.008V19.52H136.388V17H128.308V31H136.568V28.48H131.008Z" fill="#313131"/>
</svg>
