<svg width="40" height="40" viewBox="0 0 40 40" fill="none" xmlns="http://www.w3.org/2000/svg">
<g clip-path="url(#clip0_610_1297)">
<path fill-rule="evenodd" clip-rule="evenodd" d="M35.8367 32.5415C38.3767 30.6998 40 27.9781 40 24.9515C40 19.4081 34.605 14.9131 27.9517 14.9131C21.2983 14.9131 15.9033 19.4081 15.9033 24.9515C15.9033 30.4965 21.2983 34.9915 27.9517 34.9915C29.3267 34.9915 30.6533 34.7965 31.885 34.4415L32.2383 34.3881C32.47 34.3881 32.68 34.4598 32.8783 34.5731L35.5167 36.0965L35.7483 36.1715C35.97 36.1715 36.15 35.9915 36.15 35.7698L36.085 35.4765L35.5417 33.4515L35.5 33.1948C35.5 32.9248 35.6333 32.6865 35.8367 32.5415ZM14.4583 3.82812C6.47333 3.82812 0 9.22146 0 15.8765C0 19.5065 1.94667 22.7748 4.995 24.9831C5.24 25.1565 5.4 25.4431 5.4 25.7681L5.35 26.0748L4.69833 28.5048L4.62 28.8565C4.62 29.1231 4.83667 29.3398 5.10167 29.3398L5.38167 29.2498L8.54667 27.4215C8.78333 27.2848 9.035 27.1998 9.31333 27.1998L9.73833 27.2631C11.215 27.6881 12.8083 27.9248 14.4583 27.9248L15.2517 27.9048C14.9383 26.9648 14.7667 25.9748 14.7667 24.9531C14.7667 18.8848 20.67 13.9648 27.9517 13.9648L28.7367 13.9848C27.6483 8.22979 21.67 3.82812 14.4583 3.82812ZM23.935 23.3465C23.0483 23.3465 22.33 22.6265 22.33 21.7398C22.33 20.8515 23.0483 20.1331 23.935 20.1331C24.8233 20.1331 25.5417 20.8515 25.5417 21.7398C25.5417 22.6265 24.8233 23.3465 23.935 23.3465ZM31.9683 23.3465C31.08 23.3465 30.3617 22.6265 30.3617 21.7398C30.3617 20.8515 31.08 20.1331 31.9683 20.1331C32.855 20.1331 33.5733 20.8515 33.5733 21.7398C33.5733 22.6265 32.855 23.3465 31.9683 23.3465ZM9.63833 13.9481C8.57333 13.9481 7.71167 13.0848 7.71167 12.0215C7.71167 10.9565 8.57333 10.0931 9.63833 10.0931C10.7033 10.0931 11.5667 10.9565 11.5667 12.0215C11.5667 13.0848 10.7033 13.9481 9.63833 13.9481ZM19.2767 13.9481C18.2117 13.9481 17.35 13.0848 17.35 12.0215C17.35 10.9565 18.2117 10.0931 19.2767 10.0931C20.3417 10.0931 21.205 10.9565 21.205 12.0215C21.205 13.0848 20.3417 13.9481 19.2767 13.9481Z" fill="white"/>
</g>
<defs>
<clipPath id="clip0_610_1297">
<rect width="40" height="40" fill="white"/>
</clipPath>
</defs>
</svg>
